{
  "accessors": [
    {
      "bufferView": 2,
      "componentType": 5126,
      "count": 15820,
      "max": [
        2.7249112129211426,
        3.2546606063842773,
        18.14990234375
      ],
      "min": [
        -2.3633105754852295,
        -1.8427026271820068,
        0.5447238087654114
      ],
      "type": "VEC3"
    },
    {
      "bufferView": 2,
      "byteOffset": 189840,
      "componentType": 5126,
      "count": 15820,
      "max": [
        0.9999999403953552,
        0.9999958872795105,
        0.9999798536300659
      ],
      "min": [
        -0.9999995231628418,
        -0.9999999403953552,
        -0.9990737438201904
      ],
      "type": "VEC3"
    },
    {
      "bufferView": 3,
      "componentType": 5126,
      "count": 15820,
      "max": [
        0.9999892711639404,
        0.9988541007041931,
        0.9999996423721313,
        1.0
      ],
      "min": [
        -0.9999984502792358,
        -0.9943863153457642,
        -0.9999980330467224,
        -1.0
      ],
      "type": "VEC4"
    },
    {
      "bufferView": 1,
      "componentType": 5126,
      "count": 15820,
      "max": [
        0.9997527599334717,
        0.9997557401657104
      ],
      "min": [
        0.000244140625,
        0.00025238527450710535
      ],
      "type": "VEC2"
    },
    {
      "bufferView": 0,
      "componentType": 5125,
      "count": 48207,
      "type": "SCALAR"
    },
    {
      "bufferView": 2,
      "byteOffset": 379680,
      "componentType": 5126,
      "count": 11325,
      "max": [
        2.7249112129211426,
        3.25032377243042,
        18.140666961669922
      ],
      "min": [
        -2.3728384971618652,
        -1.7657197713851929,
        0.5556877851486206
      ],
      "type": "VEC3"
    },
    {
      "bufferView": 2,
      "byteOffset": 515580,
      "componentType": 5126,
      "count": 11325,
      "max": [
        0.9999984502792358,
        0.9999992251396179,
        0.9998737573623657
      ],
      "min": [
        -0.999998152256012,
        -0.9999989867210388,
        -0.9994205832481384
      ],
      "type": "VEC3"
    },
    {
      "bufferView": 3,
      "byteOffset": 253120,
      "componentType": 5126,
      "count": 11325,
      "max": [
        0.9999921917915344,
        0.9992555975914001,
        0.9999995827674866,
        1.0
      ],
      "min": [
        -0.9999993443489075,
        -0.9998224377632141,
        -0.9999973177909851,
        -1.0
      ],
      "type": "VEC4"
    },
    {
      "bufferView": 1,
      "byteOffset": 126560,
      "componentType": 5126,
      "count": 11325,
      "max": [
        1.9996570348739624,
        0.9978026151657104
      ],
      "min": [
        1.000244140625,
        0.00025369657669216394
      ],
      "type": "VEC2"
    },
    {
      "bufferView": 0,
      "byteOffset": 192828,
      "componentType": 5125,
      "count": 40833,
      "type": "SCALAR"
    }
  ],
  "asset": {
    "extras": {
      "author": "andxet (https://sketchfab.com/andxet)",
      "license": "CC-BY-NC-SA-4.0 (http://creativecommons.org/licenses/by-nc-sa/4.0/)",
      "source": "https://sketchfab.com/3d-models/roasios-tower-2-dc9a0e9869a44e55ad6fac41c820dcea",
      "title": "Roasio's tower 2"
    },
    "generator": "Sketchfab-13.68.0",
    "version": "2.0"
  },
  "bufferViews": [
    {
      "buffer": 0,
      "byteLength": 356160,
      "name": "floatBufferViews",
      "target": 34963
    },
    {
      "buffer": 0,
      "byteLength": 217160,
      "byteOffset": 356160,
      "byteStride": 8,
      "name": "floatBufferViews",
      "target": 34962
    },
    {
      "buffer": 0,
      "byteLength": 651480,
      "byteOffset": 573320,
      "byteStride": 12,
      "name": "floatBufferViews",
      "target": 34962
    },
    {
      "buffer": 0,
      "byteLength": 434320,
      "byteOffset": 1224800,
      "byteStride": 16,
      "name": "floatBufferViews",
      "target": 34962
    }
  ],
  "buffers": [
    {
      "byteLength": 1659120,
      "uri": "scene.bin"
    }
  ],
  "images": [
    {
      "uri": "textures/tex_u1_v1_baseColor.jpeg"
    },
    {
      "uri": "textures/tex_u1_v1_normal.png"
    },
    {
      "uri": "textures/tex_u2_v1_baseColor.jpeg"
    },
    {
      "uri": "textures/tex_u2_v1_normal.png"
    }
  ],
  "materials": [
    {
      "doubleSided": true,
      "name": "tex_u1_v1",
      "normalTexture": {
        "index": 1
      },
      "pbrMetallicRoughness": {
        "baseColorTexture": {
          "index": 0
        },
        "metallicFactor": 0.0
      }
    },
    {
      "doubleSided": true,
      "name": "tex_u2_v1",
      "normalTexture": {
        "index": 3
      },
      "pbrMetallicRoughness": {
        "baseColorTexture": {
          "index": 2
        },
        "metallicFactor": 0.0
      }
    }
  ],
  "meshes": [
    {
      "name": "Object_0",
      "primitives": [
        {
          "attributes": {
            "NORMAL": 1,
            "POSITION": 0,
            "TANGENT": 2,
            "TEXCOORD_0": 3
          },
          "indices": 4,
          "material": 0,
          "mode": 4
        }
      ]
    },
    {
      "name": "Object_1",
      "primitives": [
        {
          "attributes": {
            "NORMAL": 6,
            "POSITION": 5,
            "TANGENT": 7,
            "TEXCOORD_0": 8
          },
          "indices": 9,
          "material": 1,
          "mode": 4
        }
      ]
    }
  ],
  "nodes": [
    {
      "children": [
        1
      ],
      "matrix": [
        0.9999722838401794,
        -0.007447654381394386,
        -1.653711474734895e-18,
        0.0,
        -1.1976741885300694e-18,
        6.123680278712128e-17,
        -1.0,
        0.0,
        0.007447654381394386,
        0.9999722838401794,
        6.1226188405501e-17,
        0.0,
        0.0,
        0.0,
        0.0,
        1.0
      ],
      "name": "Sketchfab_model"
    },
    {
      "children": [
        2,
        3
      ],
      "name": "model.obj.cleaner.materialmerger.gles"
    },
    {
      "mesh": 0,
      "name": "Object_2"
    },
    {
      "mesh": 1,
      "name": "Object_3"
    }
  ],
  "samplers": [
    {
      "magFilter": 9729,
      "minFilter": 9987,
      "wrapS": 10497,
      "wrapT": 10497
    }
  ],
  "scene": 0,
  "scenes": [
    {
      "name": "Sketchfab_Scene",
      "nodes": [
        0
      ]
    }
  ],
  "textures": [
    {
      "sampler": 0,
      "source": 0
    },
    {
      "sampler": 0,
      "source": 1
    },
    {
      "sampler": 0,
      "source": 2
    },
    {
      "sampler": 0,
      "source": 3
    }
  ]
}
